<svg xmlns="http://www.w3.org/2000/svg" version="1.1" xmlns:xlink="http://www.w3.org/1999/xlink" width="1000" height="1000"><metadata><rdf:RDF xmlns:rdf="http://www.w3.org/1999/02/22-rdf-syntax-ns#" xmlns:dc="http://purl.org/dc/elements/1.1/"><rdf:Description><dc:creator>RealFaviconGenerator</dc:creator><dc:source>https://realfavicongenerator.net</dc:source></rdf:Description></rdf:RDF></metadata><style>
    #light-icon {
      display: inline;
    }
    #dark-icon {
      display: none;
    }

    @media (prefers-color-scheme: dark) {
      #light-icon {
        display: none;
      }
      #dark-icon {
        display: inline;
      }
    }
  </style><g id="light-icon"><svg xmlns="http://www.w3.org/2000/svg" version="1.1" xmlns:xlink="http://www.w3.org/1999/xlink" width="1000" height="1000"><g><g transform="matrix(1.953125,0,0,1.953125,0,0)"><svg xmlns="http://www.w3.org/2000/svg" version="1.2" viewBox="0 0 512 512" width="512" height="512"><style>.a{fill:#0051d5}</style><path d="m95.2 383h-52.2v-254.6h167.6v43.3h-115.4v71.1h104.1v42.5h-104.1z"></path><path class="a" d="m353.5 251.2l-66.9 74.2v-47.5q7.8-14.2 15.3-26.1 7.6-12.1 16.6-24 9-12.1 20.7-26.3l62.3-73.1h63.8l-107.5 124.4zm-53.3 131.8h-52.2v-254.7h52.2v69.6l-1 64.9 1 25.5zm167.7 0h-61.6l-75.5-114.9 32.9-39z"></path></svg></g></g></svg></g><g id="dark-icon"><svg xmlns="http://www.w3.org/2000/svg" version="1.1" xmlns:xlink="http://www.w3.org/1999/xlink" width="1000" height="1000"><g clip-path="url(#SvgjsClipPath1012)"><rect width="1000" height="1000" fill="#ffffff"></rect><g transform="matrix(1.3671875,0,0,1.3671875,150,150)"><svg xmlns="http://www.w3.org/2000/svg" version="1.2" viewBox="0 0 512 512" width="512" height="512"><style>.a{fill:#0051d5}</style><path d="m95.2 383h-52.2v-254.6h167.6v43.3h-115.4v71.1h104.1v42.5h-104.1z"></path><path class="a" d="m353.5 251.2l-66.9 74.2v-47.5q7.8-14.2 15.3-26.1 7.6-12.1 16.6-24 9-12.1 20.7-26.3l62.3-73.1h63.8l-107.5 124.4zm-53.3 131.8h-52.2v-254.7h52.2v69.6l-1 64.9 1 25.5zm167.7 0h-61.6l-75.5-114.9 32.9-39z"></path></svg></g></g><defs><clipPath id="SvgjsClipPath1012"><rect width="1000" height="1000" x="0" y="0" rx="350" ry="350"></rect></clipPath></defs></svg></g></svg>